<svg width="31" height="21" viewBox="0 0 31 21" fill="none" xmlns="http://www.w3.org/2000/svg">
<g clip-path="url(#clip0_526_844)">
<g filter="url(#filter0_b_526_844)">
<path d="M30.7586 -0.303282C28.6142 0.0173765 27.0691 0.276707 25.5266 0.578091C20.3386 1.58913 16.3054 2.89629 13.5641 4.45403C12.7994 4.88683 12.0682 5.38096 11.275 5.99424C9.18996 7.6098 7.68625 9.36379 7.00415 10.9776C6.77937 11.5103 6.61401 12.1533 6.61401 12.5055V12.6089L8.86958 14.1456C10.1072 14.992 11.3499 15.84 11.6238 16.031L12.1276 16.3762H12.2826C12.7064 16.3762 13.5254 16.2921 14.1842 16.1817C17.1787 15.6823 20.6254 14.2297 23.4209 12.29C25.7695 10.6622 27.7977 8.16175 29.3867 4.93414C30.0352 3.61296 30.5984 2.22694 31.1823 0.509754C31.464 -0.319052 31.4924 -0.410168 31.4717 -0.408416C31.464 -0.408416 31.1436 -0.361106 30.7586 -0.303282ZM21.8475 4.34013C22.1446 4.36817 22.4598 4.43476 22.7492 4.52938C23.0825 4.63977 23.2892 4.73964 23.5553 4.92012C24.01 5.22676 24.2968 5.59649 24.4053 6.02228C24.4647 6.25883 24.4441 6.63556 24.3562 6.86335C24.0694 7.61155 23.2737 8.14598 22.142 8.35275C21.9508 8.38779 21.8604 8.39305 21.4444 8.39305C21.0336 8.3948 20.9354 8.38954 20.7391 8.3545C19.3542 8.11795 18.4215 7.31543 18.4215 6.36046C18.4215 5.9592 18.6101 5.54217 18.946 5.20749C19.0907 5.0603 19.4085 4.84127 19.6358 4.72563C20.2611 4.40847 21.0775 4.26654 21.8475 4.34013Z" fill="url(#paint0_linear_526_844)"/>
<path d="M21.4454 8.89305C21.0313 8.89481 20.895 8.89013 20.653 8.84704C19.1783 8.59455 17.9215 7.68392 17.9215 6.36046C17.9215 5.8044 18.1797 5.26606 18.5912 4.85513C18.785 4.6588 19.1503 4.41163 19.4091 4.27996L19.4096 4.27971C20.128 3.91531 21.0407 3.76086 21.8944 3.84235C22.2299 3.87399 22.5814 3.94846 22.9046 4.05413L22.9064 4.05473C23.2787 4.17805 23.5276 4.29727 23.8352 4.50582C24.3638 4.8624 24.7437 5.32552 24.8898 5.8988L24.8903 5.90046C24.936 6.08266 24.9458 6.2898 24.9352 6.47469C24.9246 6.6592 24.8913 6.86553 24.8227 7.04326C24.4482 8.01918 23.4525 8.62153 22.2322 8.84455C21.9937 8.88827 21.8648 8.89304 21.4454 8.89305ZM21.4454 8.89305C21.4458 8.89305 21.4462 8.89305 21.4465 8.89304L21.4444 8.39305V8.89305C21.4447 8.89305 21.4451 8.89305 21.4454 8.89305ZM30.709 0.348785C30.7266 0.297022 30.7431 0.248241 30.7587 0.202272C28.6571 0.517166 27.1377 0.772766 25.6225 1.06881L25.6223 1.06886C20.4566 2.07554 16.4842 3.3698 13.8112 4.88875L13.8104 4.88918C13.0698 5.30828 12.3585 5.78849 11.5808 6.3898C9.53211 7.9773 8.10063 9.66768 7.4647 11.1722C7.2867 11.5941 7.16209 12.0605 7.12528 12.3522L9.1511 13.7324L9.15182 13.7329C9.4689 13.9497 9.78674 14.167 10.0887 14.3734C10.9606 14.9693 11.7003 15.4749 11.9081 15.6197L12.2825 15.8762H12.2826C12.6674 15.8762 13.4561 15.7968 14.1016 15.6886L14.102 15.6885C17.0152 15.2027 20.3936 13.782 23.1359 11.8792L23.1361 11.8791C25.3989 10.3107 27.3769 7.88429 28.9378 4.71383C29.5751 3.41552 30.1305 2.04993 30.709 0.348785Z" stroke="#07EADC"/>
</g>
<g filter="url(#filter1_b_526_844)">
<path d="M4.20367 8.58054C3.29679 8.68742 2.41834 9.02911 1.75174 9.532C0.924962 10.1558 0.328129 10.9811 0.0645923 11.866C0.0284206 11.9834 0 12.099 0 12.1236V12.1674L0.279039 12.0973C1.83442 11.7135 3.06168 11.5874 4.3406 11.682C4.74108 11.7118 5.64279 11.8257 5.79781 11.866C5.81848 11.8712 5.88307 11.7486 5.99417 11.5015C6.20603 11.0179 6.47732 10.4729 6.62717 10.2329C6.69435 10.1278 6.91396 9.82112 7.11807 9.55127C7.3196 9.28143 7.49529 9.04313 7.50304 9.02385C7.51855 8.99056 7.49271 8.97829 7.24209 8.90295C6.66851 8.73298 6.1311 8.62434 5.59369 8.57002C5.22423 8.53323 4.55763 8.53673 4.20367 8.58054Z" fill="url(#paint1_linear_526_844)"/>
<path d="M4.26508 9.07676L4.26508 9.07675C4.57878 9.03793 5.20765 9.0341 5.54378 9.06753C5.9225 9.10583 6.30321 9.17308 6.70157 9.27312C6.50146 9.53857 6.28226 9.84407 6.20584 9.96368L6.20301 9.96811L6.20303 9.96812C6.03379 10.2392 5.75152 10.8096 5.53718 11.2986C5.53474 11.304 5.53233 11.3094 5.52995 11.3146C5.43159 11.3008 5.32612 11.2869 5.22389 11.274C4.92649 11.2364 4.59087 11.1992 4.37769 11.1834L4.3775 11.1834C3.20535 11.0966 2.08027 11.1881 0.753094 11.4743C1.03253 10.9014 1.47663 10.3659 2.05287 9.93115L4.26508 9.07676ZM4.26508 9.07676L4.26219 9.0771M4.26508 9.07676L4.26219 9.0771M4.26219 9.0771C3.43538 9.17455 2.6425 9.48633 2.05289 9.93114L4.26219 9.0771Z" stroke="#07EADC"/>
</g>
<g filter="url(#filter2_b_526_844)">
<path d="M7.71235 14.2332C6.72279 14.3209 5.53171 14.7589 4.51374 15.4125C3.32007 16.1782 2.4597 17.4293 1.81378 19.341C1.74143 19.5513 1.72335 19.6354 1.7466 19.6354C1.86028 19.6354 3.15213 19.4216 3.70762 19.3112C5.70998 18.9117 7.05867 18.4228 8.00172 17.7535C9.00161 17.0438 9.68629 16.173 9.74571 15.5404L9.75346 15.4475L8.86726 14.8343C7.89062 14.1596 7.98622 14.2087 7.71235 14.2332Z" fill="url(#paint2_linear_526_844)"/>
<path d="M9.75346 15.4475L8.86726 14.8343C8.13478 14.3283 8.00544 14.2294 7.871 14.2219C7.82619 14.2194 7.78082 14.2271 7.71235 14.2332L8.00172 17.7535M9.75346 15.4475L9.74571 15.5404C9.68629 16.173 9.00161 17.0438 8.00172 17.7535M9.75346 15.4475L9.69265 15.5354L9.2477 15.4958L9.2552 15.406L9.75346 15.4475ZM8.00172 17.7535L8.00034 17.7515M8.00172 17.7535L8.00034 17.7515M8.00034 17.7515L7.99787 17.7481L8.00034 17.7515ZM7.75695 14.7312L7.75644 14.7313C6.86266 14.8104 5.74806 15.2142 4.78387 15.8332L4.78371 15.8333C3.8133 16.4559 3.05743 17.4543 2.45835 19.0249C2.46549 19.0238 2.47266 19.0226 2.47985 19.0214C2.88478 18.9544 3.34022 18.8744 3.60999 18.8208C5.58829 18.4261 6.85494 17.9543 7.71232 17.3457L7.71233 17.3457C8.17974 17.014 8.56412 16.6508 8.83358 16.3087C9.03033 16.0588 9.14759 15.8436 9.20533 15.6763L8.58309 15.2457C8.58301 15.2456 8.58293 15.2455 8.58285 15.2455C8.51257 15.1969 8.44856 15.1527 8.39018 15.1123C8.05046 14.8774 7.90125 14.7742 7.81517 14.7258C7.80148 14.7272 7.78265 14.7289 7.75695 14.7312Z" stroke="#07EADC"/>
</g>
<g filter="url(#filter3_b_526_844)">
<path d="M16.6649 16.0485C15.6004 16.4095 15.1405 16.5287 13.7892 16.7968L13.2234 16.9089L13.2363 16.9632C13.2441 16.9912 13.2854 17.1297 13.3293 17.2699C13.4792 17.764 13.4998 17.9024 13.4998 18.4438C13.4998 18.9888 13.4792 19.1325 13.3293 19.5758C13.2415 19.8386 13.0322 20.31 12.8591 20.6411L12.7402 20.8672L12.8875 20.8549C13.3138 20.8216 13.983 20.699 14.5075 20.5605C15.4428 20.3135 16.2282 19.9735 16.8457 19.5495C17.7061 18.959 18.1117 18.3107 18.1143 17.5239C18.1143 17.0999 18.0058 16.6969 17.7707 16.2641C17.6725 16.0818 17.4787 15.7805 17.4606 15.7805C17.4555 15.7805 17.0989 15.9014 16.6649 16.0485Z" fill="url(#paint3_linear_526_844)"/>
<path d="M13.8864 17.2872L13.8865 17.2872C15.2544 17.0158 15.7361 16.8915 16.8254 16.5221C16.985 16.468 17.1338 16.4175 17.2585 16.3753C17.2858 16.4212 17.311 16.465 17.3305 16.5012L17.3313 16.5028C17.5321 16.8724 17.6142 17.1938 17.6143 17.523C17.6122 18.0941 17.3359 18.6066 16.5628 19.1373L16.5627 19.1373C16.0039 19.521 15.2748 19.8407 14.3799 20.0771L13.8864 17.2872ZM13.8864 17.2872L13.8577 17.2929M13.8864 17.2872L13.8577 17.2929M13.8577 17.2929C13.907 17.4646 13.9429 17.6114 13.9656 17.767C13.9951 17.97 13.9998 18.1715 13.9998 18.4438C13.9998 18.7167 13.9952 18.9221 13.9653 19.122C13.9346 19.3266 13.8803 19.5072 13.8033 19.7351C13.7566 19.8747 13.6827 20.0586 13.5988 20.2502C13.8617 20.2016 14.1364 20.1413 14.3798 20.0771L13.8577 17.2929Z" stroke="#07EADC"/>
</g>
</g>
<defs>
<filter id="filter0_b_526_844" x="-43.386" y="-50.4084" width="124.863" height="116.785" filterUnits="userSpaceOnUse" color-interpolation-filters="sRGB">
<feFlood flood-opacity="0" result="BackgroundImageFix"/>
<feGaussianBlur in="BackgroundImageFix" stdDeviation="25"/>
<feComposite in2="SourceAlpha" operator="in" result="effect1_backgroundBlur_526_844"/>
<feBlend mode="normal" in="SourceGraphic" in2="effect1_backgroundBlur_526_844" result="shape"/>
</filter>
<filter id="filter1_b_526_844" x="-50" y="-41.4552" width="107.507" height="103.623" filterUnits="userSpaceOnUse" color-interpolation-filters="sRGB">
<feFlood flood-opacity="0" result="BackgroundImageFix"/>
<feGaussianBlur in="BackgroundImageFix" stdDeviation="25"/>
<feComposite in2="SourceAlpha" operator="in" result="effect1_backgroundBlur_526_844"/>
<feBlend mode="normal" in="SourceGraphic" in2="effect1_backgroundBlur_526_844" result="shape"/>
</filter>
<filter id="filter2_b_526_844" x="-48.2629" y="-35.7786" width="108.016" height="105.414" filterUnits="userSpaceOnUse" color-interpolation-filters="sRGB">
<feFlood flood-opacity="0" result="BackgroundImageFix"/>
<feGaussianBlur in="BackgroundImageFix" stdDeviation="25"/>
<feComposite in2="SourceAlpha" operator="in" result="effect1_backgroundBlur_526_844"/>
<feBlend mode="normal" in="SourceGraphic" in2="effect1_backgroundBlur_526_844" result="shape"/>
</filter>
<filter id="filter3_b_526_844" x="-37.2598" y="-34.2196" width="105.374" height="105.087" filterUnits="userSpaceOnUse" color-interpolation-filters="sRGB">
<feFlood flood-opacity="0" result="BackgroundImageFix"/>
<feGaussianBlur in="BackgroundImageFix" stdDeviation="25"/>
<feComposite in2="SourceAlpha" operator="in" result="effect1_backgroundBlur_526_844"/>
<feBlend mode="normal" in="SourceGraphic" in2="effect1_backgroundBlur_526_844" result="shape"/>
</filter>
<linearGradient id="paint0_linear_526_844" x1="19.0455" y1="16.3762" x2="19.0455" y2="-0.40844" gradientUnits="userSpaceOnUse">
<stop stop-color="#5221A3"/>
<stop offset="1" stop-color="white" stop-opacity="0.75"/>
</linearGradient>
<linearGradient id="paint1_linear_526_844" x1="3.75331" y1="12.1674" x2="3.75331" y2="8.54483" gradientUnits="userSpaceOnUse">
<stop stop-color="#5221A3"/>
<stop offset="1" stop-color="white" stop-opacity="0.75"/>
</linearGradient>
<linearGradient id="paint2_linear_526_844" x1="5.74526" y1="19.6354" x2="5.74526" y2="14.2215" gradientUnits="userSpaceOnUse">
<stop stop-color="#5221A3"/>
<stop offset="1" stop-color="white" stop-opacity="0.75"/>
</linearGradient>
<linearGradient id="paint3_linear_526_844" x1="15.4273" y1="20.8672" x2="15.4273" y2="15.7805" gradientUnits="userSpaceOnUse">
<stop stop-color="#5221A3"/>
<stop offset="1" stop-color="white" stop-opacity="0.75"/>
</linearGradient>
<clipPath id="clip0_526_844">
<rect width="31" height="20" fill="white" transform="translate(0 0.558594)"/>
</clipPath>
</defs>
</svg>
